:SAMPLES-PER-SECOND 30
:FULLY-SPECIFIED
:DEGREES
44
root  34.81430294 36.55327624 -14.41791264 9.153038979 -5.0753479 3.400958538
lowerback  -8.122660637 -1.053030133 -0.6899571419
upperback  -3.901469946 -0.9061200023 -3.177129984
thorax  0.4789499938 -0.2982279956 -2.966109991
lowerneck  -6.908750057 -13.57229996 -10.85789967
upperneck  11.70230007 -18.4178009 10.53479958
head  6.680379868 -8.681389809 3.330919981
lclavicle  0 -4.497500157e-015 -2.743230041e-014
lhumerus  -48.60919952 29.99539948 63.76279831
lradius  0.006620147731 -6.507048965e-006 30.35649872
lwrist  4.824992743e-007 -3.790274832e-007 -28.2493
lhand  -3.513464896e-031 -36.87580109 -10.71479988
lfingers  90 7.125020027 -90
lthumb  94.8131485 -25.55077171 101.0467377
rclavicle  0 -4.497500157e-015 -2.743230041e-014
rhumerus  -57.33789825 -26.98539925 -58.38899994
rradius  -5.16745672e-007 2.214343908e-008 75.1473999
rwrist  -2.867388866e-005 0.1017204151 -170.8280029
rhand  -3.032451025e-031 -1.932150006 -7.462729931
rfingers  -90 -7.125020027 -90
rthumb  -86.3585968 -8.217829704 -65.99982452
rfemur  -11.38819885 15.51512337 12.73939896
rtibia  -0.3885244131 -1.154886723 18.94110489
rfoot  1.227862597 -21.9931736 -35.0194397
rtoes  4.06460762 19.60604668 -101.9608383
lfemur  -5.833125591 -16.00473404 -21.40791893
ltibia  4.611801624 -0.4032553434 11.28334141
lfoot  0.6990765333 -22.9822197 36.77563095
ltoes  -8.649330139 -18.10245323 -116.0848007
45
root  34.81277105 36.54967481 -14.41585661 9.186761856 -5.103672981 3.401281118
lowerback  -8.100078583 -1.056079865 -0.6959660053
upperback  -3.898920059 -0.9110879898 -3.177170038
thorax  0.469020009 -0.3010219932 -2.96281004
lowerneck  -6.857279778 -13.58790016 -10.86979961
upperneck  11.62020016 -18.43359756 10.5078001
head  6.64549017 -8.696700096 3.327440023
lclavicle  0 -4.497500157e-015 -2.743230041e-014
lhumerus  -48.66109848 29.97990036 63.75559998
lradius  0.006620147731 -6.507048965e-006 30.39440155
lwrist  4.824992743e-007 -3.790274832e-007 -28.15159988
lhand  -3.514630307e-031 -36.8628006 -10.70259953
lfingers  90 7.125020027 -90
lthumb  94.80448914 -25.53925514 101.0317841
rclavicle  0 -4.497500157e-015 -2.743230041e-014
rhumerus  -57.42890167 -26.78969955 -58.28699875
rradius  -5.16745672e-007 2.214343908e-008 77.14810181
rwrist  -2.867388866e-005 0.1017204151 -171.8540039
rhand  -3.012049973e-031 -1.562540054 -7.768740177
rfingers  -90 -7.125020027 -90
rthumb  -86.41565704 -7.958748817 -65.6576767
rfemur  -11.41310883 15.49817371 12.7177496
rtibia  -0.3800082803 -1.200945497 18.91819954
rfoot  1.220754147 -22.08060646 -35.01610565
rtoes  4.072811604 19.60580826 -101.9852982
lfemur  -5.955775738 -16.02386475 -21.36620712
ltibia  4.545619011 -0.4246689677 11.42742348
lfoot  0.7065412998 -22.99708557 36.75559616
ltoes  -8.689767838 -18.08358002 -116.2150116
46
root  34.81292124 36.54944352 -14.41254804 9.241539001 -5.132689476 3.395657778
lowerback  -8.045969963 -1.068789959 -0.7257048488
upperback  -3.891200066 -0.9291610122 -3.171625137
thorax  0.4469839931 -0.3105629981 -2.942100048
lowerneck  -6.796619892 -13.6111002 -10.94299984
upperneck  11.5468998 -18.4640007 10.54969978
head  6.626329899 -8.716409683 3.351530075
lclavicle  0 -4.497500157e-015 -2.743230041e-014
lhumerus  -48.68759918 29.85499954 63.82369995
lradius  0.006620147731 -6.507048965e-006 30.44930077
lwrist  4.824992743e-007 -3.790274832e-007 -27.90410042
lhand  -3.516721181e-031 -36.83380127 -10.68150043
lfingers  90 7.125020027 -90
lthumb  94.78643799 -25.51960564 100.998848
rclavicle  0 -4.497500157e-015 -2.743230041e-014
rhumerus  -57.52970123 -26.64450073 -58.13130188
rradius  -5.16745672e-007 2.214343908e-008 79.38549805
rwrist  -2.867388866e-005 0.1017204151 -172.1840057
rhand  -3.004313352e-031 -1.610659957 -7.88409996
rfingers  -90 -7.125020027 -90
rthumb  -86.47255707 -7.850887775 -65.71107483
rfemur  -11.45882702 15.4785471 12.69448948
rtibia  -0.3702998757 -1.240498662 18.88938713
rfoot  1.223693728 -22.14295959 -34.99719238
rtoes  4.060096741 19.60554695 -101.9473877
lfemur  -6.09226799 -15.94752121 -21.31387329
ltibia  4.487748146 -0.4002846181 11.5543766
lfoot  0.7324783802 -23.10287094 36.71763229
ltoes  -8.686120033 -18.08528709 -116.2032623
47
root  34.81316454 36.54921224 -14.40815813 9.25897789 -5.163509846 3.414596796
lowerback  -8.002750397 -1.080919981 -0.721927464
upperback  -3.905169964 -0.9473839998 -3.165970087
thorax  0.407931 -0.3199479878 -2.937849998
lowerneck  -6.717569828 -13.62720013 -11.04109955
upperneck  11.4677 -18.49039841 10.64900017
head  6.610020161 -8.731419563 3.39835
lclavicle  0 -4.497500157e-015 -2.743230041e-014
lhumerus  -48.75790024 29.89299965 63.75770187
lradius  0.006620147731 -6.507048965e-006 30.43300056
lwrist  4.824992743e-007 -3.790274832e-007 -27.9564991
lhand  -3.513980903e-031 -36.81430054 -10.71730042
lfingers  90 7.125020027 -90
lthumb  94.78479767 -25.55534554 100.9811707
rclavicle  0 -4.497500157e-015 -2.743230041e-014
rhumerus  -57.60380173 -26.52269936 -57.94380188
rradius  -5.16745672e-007 2.214343908e-008 81.65019989
rwrist  -2.867388866e-005 0.1017204151 -172.6820068
rhand  -2.999383946e-031 -1.710389972 -7.957330227
rfingers  -90 -7.125020027 -90
rthumb  -86.52121735 -7.77849865 -65.81232452
rfemur  -11.49326611 15.45920086 12.6697588
rtibia  -0.3728602827 -1.255704641 18.93052864
rfoot  1.207389355 -22.18694305 -34.96030045
rtoes  4.05636692 19.60525513 -101.9362717
lfemur  -6.073559284 -15.95034885 -21.36061478
ltibia  4.52350235 -0.4326477051 11.5050354
lfoot  0.7185981274 -23.01335144 36.69364166
ltoes  -8.667488098 -18.09399223 -116.1432571
48
root  34.81201412 36.54894191 -14.40362555 9.267627716 -5.214571476 3.407813549
lowerback  -7.978089809 -1.084589958 -0.7266376019
upperback  -3.915980101 -0.9525679946 -3.165570021
thorax  0.3830119967 -0.3224759996 -2.934710026
lowerneck  -6.627850056 -13.65579987 -11.10910034
upperneck  11.35459995 -18.5299015 10.70250034
head  6.575069904 -8.756580353 3.426919937
lclavicle  0 -4.497500157e-015 -2.743230041e-014
lhumerus  -48.79949951 29.84339905 63.76860046
lradius  0.006620147731 -6.507048965e-006 30.41399956
lwrist  4.824992743e-007 -3.790274832e-007 -27.99539948
lhand  -3.51368687e-031 -36.83649826 -10.7177
lfingers  90 7.125020027 -90
lthumb  94.79534912 -25.55502319 101.0050201
rclavicle  0 -4.497500157e-015 -2.743230041e-014
rhumerus  -57.59109879 -26.36809921 -57.75170135
rradius  -5.16745672e-007 2.214343908e-008 83.86620331
rwrist  -2.867388866e-005 0.1017204151 -173.2559967
rhand  -2.987116059e-031 -1.673370004 -8.140789986
rfingers  -90 -7.125020027 -90
rthumb  -86.59039307 -7.613277435 -65.78646851
rfemur  -11.50270081 15.43346119 12.66894627
rtibia  -0.3597329855 -1.259562969 18.93267059
rfoot  1.226801395 -22.21200752 -34.867733
rtoes  4.062222958 19.60494041 -101.9554367
lfemur  -6.077946663 -15.90565872 -21.35824394
ltibia  4.522324562 -0.4344718456 11.51303673
lfoot  0.7150200605 -23.01353836 36.66936111
ltoes  -8.64567852 -18.10415268 -116.0730515
49
root  34.80910955 36.54865355 -14.39909747 9.293909073 -5.282536507 3.406119347
lowerback  -7.963450432 -1.066869974 -0.694660902
upperback  -3.909579992 -0.9310250282 -3.195800066
thorax  0.3813489974 -0.3123399913 -2.982180119
lowerneck  -6.535329819 -13.70559978 -11.11030006
upperneck  11.24020004 -18.5984993 10.70320034
head  6.530779839 -8.796759605 3.426949978
lclavicle  0 -4.497500157e-015 -2.743230041e-014
lhumerus  -48.8003006 29.79910088 63.73519897
lradius  0.006620147731 -6.507048965e-006 30.37809944
lwrist  4.824992743e-007 -3.790274832e-007 -28.11809921
lhand  -3.513178311e-031 -36.8064003 -10.72809982
lfingers  90 7.125020027 -90
lthumb  94.78340149 -25.56628418 100.9737473
rclavicle  0 -4.497500157e-015 -2.743230041e-014
rhumerus  -57.52610016 -26.29229927 -57.56190109
rradius  -5.16745672e-007 2.214343908e-008 86.06159973
rwrist  -2.867388866e-005 0.1017204151 -173.4880066
rhand  -2.996094386e-031 -1.425629973 -8.007570267
rfingers  -90 -7.125020027 -90
rthumb  -86.48991394 -7.74900198 -65.53800201
rfemur  -11.53847027 15.38974285 12.65673542
rtibia  -0.3457131684 -1.274124622 18.94599342
rfoot  1.233950019 -22.26205254 -34.77158356
rtoes  4.067129135 19.604599 -101.9683533
lfemur  -6.063957691 -15.85034466 -21.36969376
ltibia  4.546273708 -0.4407975972 11.45913029
lfoot  0.6937839985 -22.96303749 36.6387825
ltoes  -8.658637047 -18.09811974 -116.1147614
50
root  34.80081934 36.5483712 -14.39380646 9.378444672 -5.234645844 3.406759977
lowerback  -7.905840397 -1.093030095 -0.6872170568
upperback  -3.877449989 -0.9709609747 -3.200939894
thorax  0.3806369901 -0.3340499997 -2.994159937
lowerneck  -6.479869843 -13.74450016 -11.17920017
upperneck  11.15040016 -18.65060043 10.7489996
head  6.509860039 -8.826729774 3.448729992
lclavicle  0 -4.497500157e-015 -2.743230041e-014
lhumerus  -48.79299927 29.78030014 63.73329926
lradius  0.006620147731 -6.507048965e-006 30.32999802
lwrist  4.824992743e-007 -3.790274832e-007 -28.20339966
lhand  -3.515373168e-031 -36.78749847 -10.70429993
lfingers  90 7.125020027 -90
lthumb  94.76952362 -25.54365158 100.951355
rclavicle  0 -4.497500157e-015 -2.743230041e-014
rhumerus  -57.40250015 -26.19020081 -57.292099
rradius  -5.16745672e-007 2.214343908e-008 88.13269806
rwrist  -2.867388866e-005 0.1017204151 -173.9980011
rhand  -3.012607533e-031 -1.566460013 -7.760399818
rfingers  -90 -7.125020027 -90
rthumb  -86.41292572 -7.966087818 -65.66095734
rfemur  -11.66346073 15.32912445 12.66219616
rtibia  -0.3542994261 -1.257207632 19.03997421
rfoot  1.193186998 -22.26433372 -34.75754929
rtoes  4.0595994 19.60423088 -101.9459076
lfemur  -6.035912514 -15.86208248 -21.38187599
ltibia  4.63816452 -0.4007944465 11.27743149
lfoot  0.677978754 -22.92997742 36.62340546
ltoes  -8.637597084 -18.10790825 -116.0470428
